#!OML:ASF X:\für Bonn\!DataBase\2005_08_12_Daniel\c3d\Daniel.ASF
:FULLY-SPECIFIED
:DEGREES
16
root 4.1691 16.8377 -2.56606 -152.425 -80.8012 146.181
lowerback 11.3245 -6.30202 -0.12272
upperback 2.03645 -8.64267 -3.09593
thorax -4.63046 -4.33812 -1.82475
lowerneck 6.41849 11.6208 -5.50962
upperneck 5.07537 14.8793 -8.37448
head 0.822329 7.11305 -1.88925
rclavicle -2.72087e-015 -1.20265e-014
rhumerus -49.1872 -20.2149 -66.0439
rradius 22.9651
rwrist 45.8226
rhand -20.8074 22.693
rfingers 7.12502
rthumb 5.56033 -7.21408
lclavicle -2.72087e-015 -1.20265e-014
lhumerus -36.8433 -4.74179 86.5317
lradius 131.099
lwrist 12.5105
lhand -20.6623 -26.3875
lfingers 7.12502
lthumb 5.70044 3.51585
rfemur -20.7879 -3.12791 17.5016
rtibia 50.5478
rfoot -27.9515 -6.41023
rtoes -4.94324
lfemur -6.96676 -3.33009 -19.3226
ltibia 58.6328
lfoot -17.9075 17.3744
ltoes -31.121
17
root 4.15166 16.8405 -2.55253 -153.096 -80.5391 146.376
lowerback 11.5707 -6.23753 0.305913
upperback 2.02819 -8.51671 -3.18928
thorax -4.84597 -4.28322 -2.14397
lowerneck 6.38762 11.5773 -5.53571
upperneck 5.06453 14.8195 -8.68574
head 0.846654 7.07528 -1.97971
rclavicle -2.41026e-014 2.5842e-015
rhumerus -48.7029 -19.1112 -67.2705
rradius 23.5138
rwrist 44.8221
rhand -20.8458 22.3537
rfingers 7.12502
rthumb 5.52324 -7.55435
lclavicle -2.41026e-014 2.5842e-015
lhumerus -37.3653 -4.35953 86.5627
lradius 131.072
lwrist 12.49
lhand -20.5471 -26.3958
lfingers 7.12502
lthumb 5.81162 3.50445
rfemur -20.1244 -2.94866 17.3173
rtibia 50.3749
rfoot -27.9235 -6.40147
rtoes -5.28732
lfemur -8.65488 -2.53269 -19.0646
ltibia 61.3538
lfoot -14.3398 16.6271
ltoes -29.9817
18
root 4.13361 16.8481 -2.53794 -153.695 -80.2753 146.391
lowerback 11.9218 -6.15983 0.73857
upperback 2.07578 -8.37469 -3.31756
thorax -5.06322 -4.22261 -2.49919
lowerneck 6.25305 11.5128 -5.56859
upperneck 5.16626 14.7519 -8.91445
head 0.916154 7.02539 -2.03348
rclavicle -1.2744e-014 1.55052e-014
rhumerus -48.2133 -17.761 -68.7138
rradius 24.1445
rwrist 43.4841
rhand -20.834 22.2427
rfingers 7.12502
rthumb 5.53465 -7.66498
lclavicle -1.2744e-014 1.55052e-014
lhumerus -37.8477 -4.04104 86.5655
lradius 131.11
lwrist 12.5258
lhand -20.4026 -26.3271
lfingers 7.12502
lthumb 5.95114 3.56934
rfemur -19.2813 -2.67157 17.1113
rtibia 50.0995
rfoot -27.8824 -6.49465
rtoes -5.62202
lfemur -10.5376 -1.72779 -18.7983
ltibia 64.3865
lfoot -10.3193 15.9487
ltoes -29.169
19
root 4.11421 16.8607 -2.52234 -154.271 -79.9829 146.24
lowerback 12.4304 -6.08302 1.1503
upperback 2.16656 -8.23832 -3.47999
thorax -5.3213 -4.16636 -2.86725
lowerneck 6.11269 11.4525 -5.61474
upperneck 5.25157 14.689 -9.11988
head 0.978646 6.97863 -2.07871
rclavicle -9.06567e-014 -2.28602e-015
rhumerus -47.7652 -16.126 -70.3234
rradius 24.8568
rwrist 41.9788
rhand -20.8419 22.2661
rfingers 7.12502
rthumb 5.52698 -7.64183
lclavicle -9.06567e-014 -2.28602e-015
lhumerus -38.3176 -3.70375 86.5307
lradius 131.211
lwrist 12.5763
lhand -20.2041 -26.0927
lfingers 7.12502
lthumb 6.14281 3.79822
rfemur -18.2088 -2.31752 16.8631
rtibia 49.7045
rfoot -27.8435 -6.62723
rtoes -5.98093
lfemur -12.5245 -0.911409 -18.5547
ltibia 67.6858
lfoot -5.74635 15.1469
ltoes -27.8512
20
root 4.09631 16.8769 -2.5039 -154.779 -79.7135 145.903
lowerback 13.0837 -6.00414 1.6118
upperback 2.30244 -8.09476 -3.69869
thorax -5.6226 -4.11023 -3.3155
lowerneck 6.01887 11.3768 -5.61921
upperneck 5.29054 14.6017 -9.30578
head 1.01935 6.92562 -2.12861
rclavicle -1.04809e-013 2.77056e-014
rhumerus -47.4505 -14.3651 -72.0334
rradius 25.6779
rwrist 40.3036
rhand -20.8953 22.3275
rfingers 7.12502
rthumb 5.47548 -7.58177
lclavicle -1.04809e-013 2.77056e-014
lhumerus -38.7164 -3.47983 86.409
lradius 131.327
lwrist 12.6524
lhand -20.0087 -25.764
lfingers 7.12502
lthumb 6.33141 4.12134
rfemur -16.9499 -1.91806 16.5995
rtibia 49.2093
rfoot -27.7674 -6.8356
rtoes -6.28824
lfemur -14.6245 -0.200215 -18.3464
ltibia 71.1847
lfoot -0.411296 14.0585
ltoes -24.9677
21
root 4.07912 16.8934 -2.48184 -155.373 -79.4497 145.522
lowerback 13.8886 -5.9314 2.10907
upperback 2.48333 -7.95268 -3.94375
thorax -5.9636 -4.05808 -3.8056
lowerneck 5.84317 11.2911 -5.82263
upperneck 5.3292 14.4941 -9.34295
head 1.04583 6.85828 -2.09714
rclavicle 6.38899e-014 3.81294e-014
rhumerus -47.2189 -12.5415 -73.7416
rradius 26.5477
rwrist 38.6999
rhand -20.996 22.308
rfingers 7.12502
rthumb 5.37822 -7.60371
lclavicle 6.38899e-014 3.81294e-014
lhumerus -39.063 -3.29333 86.2409
lradius 131.474
lwrist 12.7474
lhand -19.771 -25.367
lfingers 7.12502
lthumb 6.56088 4.51136
rfemur -15.5237 -1.48838 16.3324
rtibia 48.6489
rfoot -27.6662 -7.07907
rtoes -6.56976
lfemur -16.7557 0.458607 -18.1607
ltibia 74.798
lfoot 5.1831 12.4946
ltoes -21.7097
22
root 4.06239 16.9117 -2.45764 -155.993 -79.1423 145.068
lowerback 14.8022 -5.83422 2.61466
upperback 2.69613 -7.7746 -4.22021
thorax -6.32624 -3.9916 -4.3422
lowerneck 5.65024 11.1956 -6.21565
upperneck 5.3445 14.359 -9.21168
head 1.03955 6.7771 -1.98443
rclavicle -2.09563e-014 -1.62755e-015
rhumerus -47.0734 -10.8644 -75.2828
rradius 27.4054
rwrist 37.6049
rhand -21.1601 22.3308
rfingers 7.12502
rthumb 5.2198 -7.58495
lclavicle -2.09563e-014 -1.62755e-015
lhumerus -39.3772 -3.20225 86.0647
lradius 131.63
lwrist 12.8157
lhand -19.5754 -24.9843
lfingers 7.12502
lthumb 6.74972 4.88815
rfemur -13.9936 -0.986946 16.0397
rtibia 48.0842
rfoot -27.5926 -7.34045
rtoes -6.95768
lfemur -18.8759 1.143 -17.9981
ltibia 78.4523
lfoot 10.2738 10.3929
ltoes -19.4654
23
root 4.04733 16.9234 -2.43131 -156.72 -78.7379 144.652
lowerback 15.7917 -5.70553 3.12725
upperback 2.94124 -7.55381 -4.55257
thorax -6.69166 -3.90863 -4.95955
lowerneck 5.40001 11.0837 -6.66657
upperneck 5.43737 14.2124 -8.94181
head 1.05258 6.68536 -1.81483
rclavicle 5.25234e-014 1.88473e-014
rhumerus -46.9258 -9.52889 -76.5974
rradius 28.1844
rwrist 37.3179
rhand -21.2578 22.4548
rfingers 7.12502
rthumb 5.12545 -7.46323
lclavicle 5.25234e-014 1.88473e-014
lhumerus -39.6669 -3.19084 85.7757
lradius 131.855
lwrist 12.9498
lhand -19.2983 -24.7485
lfingers 7.12502
lthumb 7.01718 5.11517
rfemur -12.4455 -0.369578 15.723
rtibia 47.5761
rfoot -27.5212 -7.59338
rtoes -7.28229
lfemur -21.0086 2.00039 -17.8384
ltibia 82.1541
lfoot 15.0407 7.87281
ltoes -19.0574
